<svg width="60" height="60" viewBox="0 0 60 60" fill="none" xmlns="http://www.w3.org/2000/svg">
<path d="M16.1 1.34129C16.25 1.76444 24.85 7.7943 35.25 14.7762L54.2 27.4178L52.25 27.841C49.9 28.3699 49 29.1633 50.1 29.5864C50.75 29.8509 56.25 28.6873 56.75 28.1583C57.05 27.841 55.55 21.7582 55.1 21.2822C54.25 20.383 53.9 21.8111 54.45 23.821C54.85 25.355 54.8 25.6723 54.25 25.4079C53.85 25.2492 45.5 19.7482 35.65 13.1366C25.85 6.52486 17.35 1.02393 16.8 0.86525C16.15 0.706568 15.95 0.812355 16.1 1.34129Z" fill="#1E73BE"/>
<path d="M11.8 13.7711C11.65 14.2471 11.5 19.4836 11.5 25.4076C11.5 35.1929 11.4 36.3566 10.55 37.6789C8.3 41.0641 0 56.8793 0 57.7785C0 59.8413 0.75 60 12.5 60C20.6 60 23.95 59.8413 24.4 59.3653C25.35 58.3603 25.1 56.8793 23.5 54.0759L22 51.537V33.0772C22 22.9216 21.85 14.2471 21.7 13.7711C21.25 12.5016 12.25 12.5016 11.8 13.7711ZM20.25 15.1992C20.4 15.5694 20.45 23.0803 20.4 31.9664L20.25 48.099L17.15 42.4394C15.45 39.3715 13.8 36.674 13.5 36.4624C12.95 36.0921 12.75 15.4637 13.35 14.8818C13.95 14.1942 20 14.4587 20.25 15.1992ZM18.2 47.57C21.1 52.9123 23.5 57.5669 23.5 57.8843C23.5 58.2016 19.75 58.4132 12.5 58.4132C4.85 58.4132 1.5 58.2545 1.5 57.8314C1.5 56.9851 12 37.7847 12.5 37.7847C12.7 37.7847 15.25 42.1749 18.2 47.57Z" fill="#3E3E3E"/>
<path d="M11.4 43.1268C10.7 43.5499 10.5 44.3433 10.5 46.9351C10.5 51.5369 10.85 52.5947 12.3 52.5947C13.85 52.5947 14.5 50.9021 14.5 46.7764C14.5 44.2375 14.3 43.5499 13.55 43.0739C12.4 42.4392 12.45 42.4392 11.4 43.1268ZM13 47.5169C13 49.1038 12.8 50.5848 12.5 50.7435C12.2 50.955 12 49.8443 12 47.8872C12 46.0888 12.2 44.6607 12.5 44.6607C12.8 44.6607 13 45.9301 13 47.5169Z" fill="#1E73BE"/>
<path d="M11.2498 54.4989C10.2998 55.5568 10.4498 56.7734 11.6498 57.5668C12.6498 58.2544 14.1498 57.461 14.3998 56.1915C14.5498 55.3452 13.2498 53.6527 12.4998 53.6527C12.2498 53.6527 11.6998 54.0229 11.2498 54.4989Z" fill="#1E73BE"/>
<path d="M24.85 23.2916C24.65 23.5032 24.5 30.062 24.5 37.8902V52.0657H29.5H34.5L34.4 37.6257L34.25 23.2387L29.75 23.08C27.25 23.0271 25.05 23.08 24.85 23.2916ZM33 37.52V50.4789H29.5H26V37.52V24.561H29.5H33V37.52Z" fill="#3E3E3E"/>
<path d="M37.5 42.016V52.1187L42.4 51.96L47.25 51.8013V42.016V32.2307L42.4 32.072L37.5 31.9133V42.016ZM46 42.016V50.479H42.5H39V42.016V33.553H42.5H46V42.016Z" fill="#3E3E3E"/>
<path d="M50 45.1895V52.0657H55H60V45.1895V38.3134H55H50V45.1895ZM58.5 45.1895V50.4789H55H51.5V45.1895V39.9002H55H58.5V45.1895Z" fill="#1E73BE"/>
</svg>
