<svg width="55" height="69" viewBox="0 0 55 69" fill="none" xmlns="http://www.w3.org/2000/svg">
<path d="M27.564 1.78619C22.8319 3.11811 17.6971 6.95405 15.4318 10.8965C13.8712 13.5604 14.9284 14.4128 16.8413 12.0686C20.9693 6.95405 25.5 3.97054 30.2321 3.27794L32.5981 2.905V11.4826V20.0602L31.0879 20.9126C29.2756 21.9249 28.5708 23.2035 28.5708 25.5477C28.6212 27.5189 29.2252 28.5845 31.2389 29.9697L32.5981 30.9287L32.4974 40.039L32.3464 49.1494L29.7287 49.3092C26.3055 49.5223 25.2986 48.883 24.6442 46.1126C24.1911 44.3012 23.3857 43.1291 20.5666 40.4652C15.6835 35.8834 13.8712 31.8876 13.5692 25.3879C13.4181 21.9781 13.5692 20.0602 14.1733 18.1955C14.9787 15.6915 14.6767 14.253 13.5188 14.9989C12.6127 15.6382 11.4548 20.6995 11.4548 24.0559C11.5052 31.7811 14.1733 37.6416 20.0128 42.6496C21.8251 44.1946 22.5299 45.2069 22.7816 46.6986C22.9829 47.7642 23.3857 48.9363 23.6374 49.3092C24.0401 49.7887 24.0401 50.1616 23.6374 50.5879C22.8823 51.387 22.8319 55.0631 23.5367 55.5426C23.8891 55.7557 23.8891 56.1819 23.5367 56.8745C22.2278 59.4851 23.6877 63.2678 26.0538 63.2678C26.7082 63.2678 27.1613 63.7473 27.3626 64.5997C27.7654 66.3578 30.2321 68.4889 32.3464 68.9151C34.7628 69.3946 37.6322 67.7963 38.8907 65.2923C39.4445 64.1202 40.3003 63.2678 40.8037 63.2678C43.0187 63.2678 44.68 58.6859 43.0691 56.9811C42.616 56.5016 42.616 56.1819 43.0691 55.7024C43.8745 54.85 43.8242 51.9731 42.9684 50.6944C42.4146 49.8953 41.4581 49.6289 38.2866 49.4158L34.36 49.1494L34.209 40.1989L34.1083 31.3016L36.122 29.2238C37.7329 27.6255 38.1356 26.8263 38.1356 25.3879C38.1356 23.4166 37.0281 21.6585 35.2662 20.6995C34.1083 20.1134 34.1083 19.9003 34.1083 10.5236V0.933754L32.2457 0.98703C31.1886 0.98703 29.0742 1.35997 27.564 1.78619ZM32.5981 25.4411C32.5981 28.1583 32.2961 28.6378 31.1886 27.4657C30.0307 26.2403 30.7355 22.7773 32.1954 22.7773C32.3967 22.7773 32.5981 23.9494 32.5981 25.4411ZM35.5179 23.4166C36.6757 24.642 35.971 28.105 34.5111 28.105C34.3097 28.105 34.1083 26.8796 34.1083 25.4411C34.1083 22.724 34.4104 22.2445 35.5179 23.4166ZM40.5017 51.3337C43.1194 52.0796 42.1629 55.1164 39.2431 55.3828C37.9846 55.4893 37.3805 55.809 37.3805 56.3418C37.3805 56.8745 37.9846 57.1942 39.2431 57.3007C41.4581 57.5139 42.6663 59.0589 41.6092 60.3908C41.1561 60.9769 39.3942 61.1367 33.0512 61.1367C25.5 61.1367 25.0973 61.0834 24.7952 60.0711C24.1911 57.9933 25.2986 57.4606 30.4838 57.3007C34.4104 57.1942 35.3669 56.9811 35.3669 56.3418C35.3669 55.7024 34.4607 55.4893 30.5845 55.3828C26.8089 55.2762 25.651 55.0631 25.198 54.3705C24.3422 53.1984 24.3925 52.8788 25.349 51.8665C25.9531 51.1739 27.413 51.0141 32.7491 51.0141C36.424 51.0141 39.8976 51.1739 40.5017 51.3337ZM37.6322 63.8005C37.6322 65.1325 35.1152 66.9971 33.3532 66.9971C32.0947 66.9971 31.1382 66.5709 30.3328 65.6652C28.3191 63.5874 28.7218 63.2678 33.3532 63.2678C35.971 63.2678 37.6322 63.4809 37.6322 63.8005Z" fill="#3E3E3E"/>
<path d="M7.52842 2.21255C7.72979 3.22481 13.519 8.44595 14.0224 8.07301C14.9789 7.48697 14.3748 6.36815 11.7571 3.97069C9.089 1.51995 7.17604 0.720798 7.52842 2.21255Z" fill="#1E73BE"/>
<path d="M38.337 4.29013C35.1152 8.01951 34.9138 8.39245 35.5683 9.08505C36.0717 9.56454 36.5751 9.24488 38.1357 7.43347C39.1928 6.2081 40.1493 5.19584 40.3003 5.19584C40.4514 5.19584 41.9616 6.04827 43.6228 7.1138L46.6433 9.03178L45.7372 11.5891L44.831 14.0931L46.5426 17.343C48.2039 20.4863 48.3046 20.5396 50.7713 20.9125L53.2883 21.2855L53.1373 25.3345L52.9863 29.4368L50.5699 29.9163C48.6066 30.2893 48.0025 30.6622 47.3481 32.0474C46.895 32.9531 46.1399 34.2318 45.6365 34.9244C44.7807 36.0965 44.7807 36.2563 45.6868 38.9734L46.593 41.7971L43.4215 43.7683L40.25 45.7396L38.186 43.4487C36.7261 41.7971 36.0213 41.3176 35.6186 41.7438C34.9642 42.4364 38.7398 47.8174 39.8976 47.8174C40.3507 47.8174 42.5153 46.6986 44.7304 45.3134C47.5998 43.5552 48.7073 42.5962 48.5563 42.0102C46.9454 36.2563 46.9454 36.4694 48.3549 34.1785C49.4624 32.2605 49.9155 31.9409 52.3319 31.5146L54.9999 31.0351V25.4411V19.9003L53.4897 19.4741C52.6842 19.2609 51.4257 18.9946 50.7209 18.8347C49.8651 18.6749 49.0597 17.7692 48.2542 16.2242C47.046 13.9333 47.046 13.88 47.9522 11.0563C49.0093 7.75313 49.11 7.91296 43.2705 4.55651L39.7969 2.58527L38.337 4.29013Z" fill="#1E73BE"/>
<path d="M35.4173 16.2241C35.216 16.4372 36.2228 17.7159 37.6323 19.0478C40.5521 21.7649 41.4079 24.1624 40.5521 27.4655C40.0487 29.3302 37.884 31.9941 35.8704 33.2195C35.1153 33.6989 35.0146 34.0186 35.4173 34.4981C36.4745 35.6702 40.5521 32.5269 42.1127 29.3302C43.0692 27.359 42.7671 22.7239 41.5086 20.3797C39.8977 17.3962 36.5248 15.1053 35.4173 16.2241Z" fill="#1E73BE"/>
<path d="M0.128188 17.9822C-0.0731759 18.3019 -0.0228348 18.7814 0.17853 19.0478C0.782623 19.5805 7.83038 21.1256 8.18277 20.7526C9.03856 19.8469 8.13242 19.0478 5.56503 18.515C3.95411 18.1953 2.14183 17.7691 1.58808 17.6093C0.983987 17.5027 0.329553 17.6626 0.128188 17.9822Z" fill="#1E73BE"/>
<path d="M4.15546 34.7647C1.18534 35.9368 0.178516 36.8958 1.48739 37.4286C2.59489 37.9081 9.18958 35.2975 9.3406 34.3385C9.5923 33.1131 7.93105 33.273 4.15546 34.7647Z" fill="#1E73BE"/>
<path d="M13.0154 48.297C10.297 51.6535 9.89429 52.6125 11.3542 52.5592C12.3107 52.5592 16.9924 46.9651 16.9924 45.8463C16.9924 44.3546 15.5325 45.2603 13.0154 48.297Z" fill="#1E73BE"/>
</svg>
