<svg width="43" height="56" viewBox="0 0 43 56" fill="none" xmlns="http://www.w3.org/2000/svg">
<path d="M15.6989 2.25398C14.5837 3.01836 13.7258 4.35604 13.7258 5.02488C13.7258 6.84029 14.4979 6.74474 16.5568 4.73823C17.5005 3.78275 19.5594 3.01836 21.4467 3.01836C23.334 3.01836 25.3929 3.78275 26.3366 4.73823C28.3955 6.74474 29.1676 6.84029 29.1676 5.02488C29.1676 1.20295 19.5594 -0.803563 15.6989 2.25398Z" fill="#1E73BE"/>
<path d="M18.7019 6.4585C17.844 6.93624 17.1577 8.08282 17.1577 8.75165C17.1577 10.4715 17.5867 10.5671 19.7313 9.0383C21.1039 8.08282 21.7902 8.08282 23.1628 9.0383C25.3075 10.5671 25.7365 10.4715 25.7365 8.75165C25.7365 7.31843 23.1628 5.40747 21.2755 5.40747C20.675 5.40747 19.474 5.88521 18.7019 6.4585Z" fill="#1E73BE"/>
<path d="M21.1037 11.0443C20.7605 11.7131 20.6748 12.4775 20.9321 12.7642C21.7042 13.6241 22.5621 12.382 22.1331 11.0443C21.79 9.99327 21.6184 9.99327 21.1037 11.0443Z" fill="#1E73BE"/>
<path d="M0 19.1662C0 21.5549 0.600513 22.9881 2.14469 24.3258C4.1178 26.0456 4.28938 26.9056 4.28938 33.4984C4.28938 41.3334 5.66198 46.3974 8.83612 50.1238C15.356 57.9587 27.5378 57.9587 34.0577 50.1238C37.2318 46.3974 38.6044 41.3334 38.6044 33.4984C38.6044 26.9056 38.776 26.0456 40.7491 24.3258C42.2933 22.9881 42.8938 21.5549 42.8938 19.1662V15.9175H21.4469H0V19.1662ZM40.7491 18.8795C41.0922 19.3573 40.6633 20.6949 39.8054 21.746C38.4328 23.4658 37.0602 23.5614 21.4469 23.5614C5.83356 23.5614 4.46095 23.4658 3.08835 21.746C2.23048 20.6949 1.80154 19.3573 2.14469 18.8795C2.91678 17.4463 39.977 17.4463 40.7491 18.8795ZM36.0308 33.594C36.0308 41.9066 35.0013 45.7286 32.2561 48.3084C31.0551 49.455 30.8835 49.0728 30.8835 45.1553C30.8835 36.5559 27.2804 31.2052 21.4469 31.2052C15.6133 31.2052 12.0103 36.5559 12.0103 45.1553C12.0103 49.0728 11.8387 49.455 10.6377 48.3084C7.89246 45.7286 6.86301 41.9066 6.86301 33.594V25.4724H21.4469H36.0308V33.594ZM26.4226 36.5559C27.9668 38.5625 28.3099 40.0912 28.3099 45.5375V52.1303L24.8784 53.1813C22.3906 53.9457 20.5032 53.9457 18.0154 53.1813L14.5839 52.1303V45.4419C14.5839 39.2313 14.7555 38.4669 17.1575 35.7916C20.2459 32.4474 23.2484 32.6385 26.4226 36.5559Z" fill="#3E3E3E"/>
<path d="M18.1868 39.9957C16.9 41.4289 16.9 45.8241 18.1868 47.2574C19.4736 48.6906 23.4198 48.6906 24.7066 47.2574C25.3072 46.5885 25.7361 44.9642 25.7361 43.6265C25.7361 40.4734 24.2777 38.8491 21.4467 38.8491C20.2457 38.8491 18.7873 39.3269 18.1868 39.9957ZM23.1625 42.2889C24.1061 43.4354 24.0203 44.0087 22.9051 45.3464C21.5325 46.7796 21.3609 46.7796 19.9883 45.3464C18.8731 44.0087 18.7873 43.4354 19.731 42.2889C20.3315 41.4289 21.1036 40.7601 21.4467 40.7601C21.7899 40.7601 22.562 41.4289 23.1625 42.2889Z" fill="#1E73BE"/>
</svg>
