<svg width="105" height="116" viewBox="0 0 105 116" fill="none" xmlns="http://www.w3.org/2000/svg">
<path d="M46.9638 0.924599C33.2078 5.7034 29.1379 24.471 39.5567 35.0713C48.8359 44.4551 64.3827 41.2403 69.6735 28.8154C72.9294 21.2562 70.8945 10.3084 65.1967 5.18207C60.1501 0.66394 52.8244 -1.07381 46.9638 0.924599ZM60.1501 5.61651C61.4524 6.39849 63.6501 8.57067 65.0339 10.3953C67.1502 13.1757 67.5572 14.5659 67.8014 19.5185C68.0456 24.7317 67.8014 25.7743 65.6851 29.3367C59.4989 39.5894 45.4987 39.5894 39.3125 29.3367C37.1962 25.7743 36.952 24.7317 37.1962 19.6053C37.4404 14.9134 37.9288 13.2626 39.7195 10.656C41.0219 8.91822 42.894 6.83293 44.0335 6.05095C48.5104 2.923 55.5919 2.74923 60.1501 5.61651Z" fill="#1E73BE"/>
<path d="M54.6965 20.2353L50.8709 23.7976L48.9987 21.973C46.9638 19.8877 45.1731 19.4533 45.1731 21.0173C45.1731 23.0157 48.5918 27.8813 49.8941 27.8813C51.6848 27.8813 61.0455 19.714 61.0455 18.15C61.0455 15.8909 58.5222 16.7598 54.6965 20.2353Z" fill="#1E73BE"/>
<path d="M8.21903 60.3779C3.90501 68.2847 0.486343 75.2356 0.649136 75.757C0.893327 76.2783 3.82361 78.4505 7.32367 80.5358C11.8005 83.2293 13.8354 84.0113 14.4866 83.3162C15.8703 81.8391 21.5681 85.6621 21.5681 88.2687C21.5681 90.5278 25.6379 95.3935 27.5915 95.3935C28.324 95.3935 28.8938 96.0886 28.8938 96.9574C28.8938 98.9559 32.1497 102.344 34.0218 102.344C34.8358 102.344 35.4055 103.04 35.4055 103.908C35.4055 105.994 38.7428 109.295 40.6963 109.295C41.5917 109.295 43.0568 110.338 43.9522 111.554C44.929 112.858 46.9639 114.074 48.836 114.509C50.6267 114.943 52.9058 115.551 53.8826 115.812C55.3477 116.333 56.2431 115.812 58.1152 113.727C59.4176 112.25 61.2083 111.033 62.0223 111.033C63.813 111.033 67.1503 107.645 67.1503 105.733C67.1503 105.038 68.3712 103.908 69.8364 103.213C71.2201 102.518 72.848 100.954 73.3364 99.9116C73.9062 98.7821 75.3713 97.1312 76.7551 96.2623C79.9296 94.1771 81.2319 91.5704 80.5807 88.4425C80.0923 86.0965 80.4179 85.749 84.325 83.3162L88.5576 80.7964L89.9414 82.5342L91.3251 84.3588L97.674 80.5358C101.093 78.4505 104.104 76.2783 104.349 75.757C104.756 74.5405 89.2088 45.8678 88.0692 45.8678C87.5808 45.8678 84.4878 47.5186 81.1505 49.517C75.6155 52.9056 75.2085 53.427 75.6155 55.5991C76.2667 59.2484 73.9062 59.4222 65.1153 56.2942C58.3594 53.8614 57.0571 53.6876 54.6152 54.5565C52.5803 55.2516 51.2779 55.2516 50.1384 54.6434C47.9406 53.3401 44.3592 53.5138 41.9173 54.9909C40.7777 55.686 37.6846 56.2073 34.8358 56.2942C30.2775 56.2942 29.7078 56.1205 29.7078 54.6434C29.7078 53.427 27.917 51.863 23.6844 49.4301C20.4285 47.4317 17.3355 45.8678 16.8471 45.8678C16.4401 45.8678 12.5331 52.3843 8.21903 60.3779ZM45.9871 58.814C42.2429 60.9861 40.7777 62.8977 39.6382 67.242C37.6033 74.8012 38.8242 77.1472 44.6848 77.1472C46.8011 77.1472 47.8592 76.6258 48.9988 74.8881C53.3128 68.2847 54.2082 68.1978 61.2897 73.8454L65.6037 77.2341L63.8944 79.4931C62.999 80.7095 62.2665 82.1866 62.2665 82.7948C62.2665 83.403 61.1269 84.3588 59.8246 84.8801C58.1152 85.4883 56.8943 86.7916 56.1617 88.8769C54.778 92.2655 53.964 92.5262 49.8128 90.6147C47.9406 89.8327 46.8011 88.6163 46.4755 87.1392C46.1499 85.749 44.8476 84.3588 43.1382 83.4899C41.5917 82.7079 40.2893 81.4915 40.2893 80.8833C40.2893 80.1882 39.394 78.7111 38.2544 77.5816C35.1614 74.193 32.2311 74.7143 27.3473 79.4062L23.196 83.403L20.3471 81.4915C18.8006 80.4489 17.4983 79.4062 17.4983 79.1456C17.4983 78.798 19.696 74.3668 22.4635 69.1535L27.4287 59.7697H34.0218C38.2544 59.6828 41.4289 59.2484 42.7312 58.4664C43.8708 57.7713 45.6615 57.25 46.8011 57.25C48.6732 57.25 48.5918 57.3369 45.9871 58.814ZM64.5456 59.8566C70.2433 61.7681 73.1736 62.2895 75.3713 61.9419L78.383 61.4206L82.5342 69.1535C84.8134 73.411 86.6855 77.1472 86.6855 77.4078C86.6855 77.6685 84.6506 79.1456 82.1273 80.6227L77.569 83.403L75.0457 80.8833C70.1619 75.9307 58.9292 67.4158 56.3245 66.6338C52.8244 65.5912 50.1384 66.8945 47.7778 70.6306C46.5569 72.8028 45.3359 73.6717 43.9522 73.6717C41.6731 73.6717 41.5917 73.3241 42.8126 67.9371C43.708 64.201 44.0336 63.8534 49.9756 60.6386C53.3942 58.814 56.3245 57.25 56.4873 57.1631C56.6501 57.1631 60.3129 58.3795 64.5456 59.8566ZM36.0567 79.9276C37.8474 81.8391 37.1149 83.8375 32.9636 87.9212C28.5682 92.3524 27.9984 92.5262 26.1263 90.5278C24.2542 88.5294 24.417 87.9212 28.5682 83.2293C32.3939 78.798 34.266 78.016 36.0567 79.9276ZM73.8248 84.7063C78.0574 89.1376 78.383 90.1802 76.4295 92.2655C74.5574 94.2639 73.9876 94.0902 69.5922 89.6589C65.4409 85.5752 64.7084 83.5768 66.4991 81.6653C68.2084 79.8407 69.8364 80.5358 73.8248 84.7063ZM41.9987 86.7048C44.6034 88.2687 43.8708 91.3967 39.8824 95.3066C35.6497 99.4772 32.7194 99.8247 32.3125 96.3492C32.0683 94.8722 33.045 93.2213 35.8939 90.0934C40.2893 85.3146 39.8824 85.5752 41.9987 86.7048ZM66.9061 91.3967C69.755 94.4377 70.4875 95.8279 70.2433 97.7394C69.8364 101.649 67.4759 101.302 62.999 96.6099C58.9292 92.3524 58.278 90.4409 59.9874 88.6163C61.6967 86.7916 63.1618 87.3999 66.9061 91.3967ZM50.057 95.3935C50.7895 96.8706 50.3825 97.7394 47.1267 101.562C44.115 104.951 42.8126 105.82 41.1847 105.646C37.6033 105.212 37.9288 101.91 41.9987 97.4788C45.8243 93.3082 48.6732 92.6131 50.057 95.3935ZM60.5571 99.2165C64.7898 103.822 65.034 107.123 61.0455 107.123C58.9292 107.123 58.6036 106.776 58.3594 104.43C58.1966 102.953 57.2199 100.78 56.0803 99.6509C55.0222 98.6083 54.1268 97.2181 54.1268 96.523C54.1268 94.2639 57.1385 95.4804 60.5571 99.2165ZM54.6966 102.866C55.0222 103.735 54.0454 105.472 51.8477 107.818C48.5918 111.207 48.3476 111.381 47.0453 109.904C45.7429 108.513 45.8243 108.253 48.836 104.951C52.2547 101.215 53.8826 100.607 54.6966 102.866ZM56.5687 110.077C56.5687 111.207 54.2082 113.118 53.557 112.51C52.9872 111.815 54.778 109.295 55.8361 109.295C56.2431 109.295 56.5687 109.643 56.5687 110.077Z" fill="#F5F5F5"/>
</svg>
