<svg width="61" height="64" viewBox="0 0 61 64" fill="none" xmlns="http://www.w3.org/2000/svg">
<path d="M3.81512 34.0311C4.73719 34.158 5.13857 33.9848 5.68044 33.2641C6.38745 32.4193 7.23819 32.3718 21.8679 32.2367C30.3764 32.1599 37.3245 31.9294 37.3241 31.78C37.3236 31.5808 30.3745 31.4128 21.8895 31.3652C6.59746 31.2993 6.45565 31.2989 5.72049 30.276C5.08024 29.4027 4.81996 29.2775 3.80394 29.3993C2.40989 29.5698 1.65597 30.5639 1.77781 32.0832C1.87536 33.3286 2.42023 33.853 3.81512 34.0311ZM2.69772 31.3137C2.93155 30.2685 4.04198 30.0971 4.89501 30.9959C5.48739 31.62 5.51156 31.8442 4.96958 32.5151C4.0273 33.8075 2.37067 32.9066 2.69772 31.3137Z" fill="black"/>
<path d="M39.0034 32.3573C39.642 32.5334 40.4915 31.9878 40.1361 31.6133C39.8044 31.2638 38.1976 31.4587 38.293 31.8076C38.3408 32.0069 38.6486 32.2319 39.0034 32.3573Z" fill="black"/>
<path d="M43.4233 32.4438C44.4868 32.4218 45.2185 32.0004 44.8631 31.6259C44.6261 31.3762 42.1445 31.3945 41.9087 31.6429C41.5551 32.0155 42.4308 32.491 43.4233 32.4438Z" fill="black"/>
<path d="M48.1504 32.4565C49.2139 32.4344 49.9456 32.0131 49.5901 31.6386C49.3532 31.3889 46.8715 31.4072 46.6358 31.6556C46.2822 32.0282 47.1578 32.5036 48.1504 32.4565Z" fill="black"/>
<path d="M53.2081 32.3707C54.2245 32.3983 54.6495 32.25 54.507 31.9508C54.2696 31.5019 51.7637 31.2462 51.3865 31.6436C50.9857 32.0659 51.7664 32.3917 53.2081 32.3707Z" fill="black"/>
<path d="M57.9866 34.1762C59.3334 34.0055 60.0872 32.9616 59.9419 31.5169C59.8443 30.2716 59.323 29.7223 57.9281 29.5443C55.8239 29.2647 54.6014 31.9508 56.1416 33.5736C56.6155 34.0729 57.2068 34.2488 57.9866 34.1762ZM56.3962 31.358C56.6307 30.5618 58.1188 30.1922 58.7349 30.8413C59.7064 31.8649 58.8829 33.4315 57.4642 33.1787C56.5183 32.977 56.115 32.3533 56.3962 31.358Z" fill="#1E73BE"/>
</svg>
