<svg width="46" height="60" viewBox="0 0 46 60" fill="none" xmlns="http://www.w3.org/2000/svg">
<path d="M16.8357 2.36199C15.6397 3.18173 14.7197 4.61628 14.7197 5.33355C14.7197 7.28043 15.5477 7.17796 17.7557 5.02615C18.7677 4.00147 20.9757 3.18173 22.9997 3.18173C25.0237 3.18173 27.2317 4.00147 28.2437 5.02615C30.4517 7.17796 31.2797 7.28043 31.2797 5.33355C31.2797 1.23485 20.9757 -0.916963 16.8357 2.36199Z" fill="#1E73BE"/>
<path d="M20.0561 6.87078C19.1361 7.38312 18.4001 8.61272 18.4001 9.33C18.4001 11.1744 18.8601 11.2769 21.1601 9.6374C22.6321 8.61272 23.3681 8.61272 24.8401 9.6374C27.1401 11.2769 27.6001 11.1744 27.6001 9.33C27.6001 7.79298 24.8401 5.74364 22.8161 5.74364C22.1721 5.74364 20.8841 6.25597 20.0561 6.87078Z" fill="#1E73BE"/>
<path d="M22.6318 11.7888C22.2638 12.5061 22.1718 13.3258 22.4478 13.6332C23.2758 14.5554 24.1958 13.2234 23.7358 11.7888C23.3678 10.6617 23.1838 10.6617 22.6318 11.7888Z" fill="#1E73BE"/>
<path d="M0 20.4988C0 23.0605 0.644 24.5975 2.3 26.032C4.416 27.8765 4.6 28.7987 4.6 35.8689C4.6 44.2712 6.072 49.702 9.476 53.6983C16.468 62.1006 29.532 62.1006 36.524 53.6983C39.928 49.702 41.4 44.2712 41.4 35.8689C41.4 28.7987 41.584 27.8765 43.7 26.032C45.356 24.5975 46 23.0605 46 20.4988V17.0149H23H0V20.4988ZM43.7 20.1914C44.068 20.7037 43.608 22.1383 42.688 23.2654C41.216 25.1098 39.744 25.2123 23 25.2123C6.256 25.2123 4.784 25.1098 3.312 23.2654C2.392 22.1383 1.932 20.7037 2.3 20.1914C3.128 18.6544 42.872 18.6544 43.7 20.1914ZM38.64 35.9714C38.64 44.8861 37.536 48.9848 34.592 51.7514C33.304 52.981 33.12 52.5711 33.12 48.3699C33.12 39.1479 29.256 33.4097 23 33.4097C16.744 33.4097 12.88 39.1479 12.88 48.3699C12.88 52.5711 12.696 52.981 11.408 51.7514C8.464 48.9848 7.36 44.8861 7.36 35.9714V27.2617H23H38.64V35.9714ZM28.336 39.1479C29.992 41.2997 30.36 42.9392 30.36 48.7798V55.8501L26.68 56.9772C24.012 57.797 21.988 57.797 19.32 56.9772L15.64 55.8501V48.6773C15.64 42.017 15.824 41.1972 18.4 38.3281C21.712 34.7418 24.932 34.9467 28.336 39.1479Z" fill="#3E3E3E"/>
<path d="M19.5037 42.8368C18.1238 44.3738 18.1238 49.0873 19.5037 50.6243C20.8837 52.1614 25.1157 52.1614 26.4957 50.6243C27.1397 49.9071 27.5997 48.1651 27.5997 46.7306C27.5997 43.3492 26.0357 41.6072 22.9997 41.6072C21.7117 41.6072 20.1477 42.1195 19.5037 42.8368ZM24.8397 45.296C25.8517 46.5256 25.7597 47.1404 24.5637 48.575C23.0917 50.112 22.9077 50.112 21.4357 48.575C20.2397 47.1404 20.1477 46.5256 21.1597 45.296C21.8037 44.3738 22.6317 43.6566 22.9997 43.6566C23.3677 43.6566 24.1957 44.3738 24.8397 45.296Z" fill="#1E73BE"/>
</svg>
