<svg width="100" height="97" viewBox="0 0 100 97" fill="none" xmlns="http://www.w3.org/2000/svg">
<path d="M1.38361 2.30135C-0.461205 4.24506 -0.461205 73.0753 1.38361 75.019C2.25176 75.9337 7.02659 76.391 15.8166 76.391C33.3966 76.2767 35.1329 74.676 30.4666 63.3567L28.1877 58.0973H16.3592H4.42214V31.8V5.50275H50H95.5779V31.8V58.0973H83.6408H71.7037L69.5334 62.6707C66.7119 68.5018 66.7119 73.6469 69.4249 75.2477C72.4634 76.9627 96.9886 76.734 98.6164 75.019C100.461 73.0753 100.461 4.24506 98.6164 2.30135C96.7716 0.357635 3.22843 0.357635 1.38361 2.30135ZM89.0667 67.2441C89.0667 68.7305 88.3071 69.5309 86.8964 69.5309C85.4856 69.5309 84.726 68.7305 84.726 67.2441C84.726 65.7578 85.4856 64.9574 86.8964 64.9574C88.3071 64.9574 89.0667 65.7578 89.0667 67.2441Z" fill="#1E73BE"/>
<path d="M45.6592 11.1052C32.6369 15.3356 28.0791 23.1104 28.7302 40.0321C29.0558 49.6364 29.4899 51.4657 33.071 58.6689C37.5203 67.7014 38.1714 73.7612 34.9158 76.8483C33.8306 77.9917 28.8388 80.9644 23.8469 83.5941C15.0569 88.2819 9.9565 93.1983 11.3672 95.7137C12.4524 97.4288 87.5474 97.4288 88.6326 95.7137C90.1518 93.084 84.7259 88.1676 74.3081 82.5651L63.5647 76.8483L63.2392 71.4745C62.9136 67.1297 63.6733 64.6144 67.1459 57.7542C71.1611 49.6364 71.2696 49.0647 71.1611 37.9741C71.1611 24.2538 69.3162 20.0234 61.937 16.1359C59.3325 14.6496 56.7281 12.7059 56.1855 11.7912C55.2088 9.9618 50.3255 9.61879 45.6592 11.1052Z" fill="#F5F5F5"/>
</svg>
