<svg width="63" height="59" viewBox="0 0 63 59" fill="none" xmlns="http://www.w3.org/2000/svg">
<path d="M15.334 15.4741C6.89434 24.0251 0 31.3115 0 31.733C0 34.0213 3.44717 31.1308 16.7604 17.642L31.5 2.70785L46.2396 17.642C59.5528 31.1308 63 34.0213 63 31.733C63 30.7093 32.5698 -0.00196457 31.5 -0.00196457C31.0245 -0.00196457 23.7736 6.98334 15.334 15.4741Z" fill="#3E3E3E"/>
<path d="M11.8866 1.80448C11.2329 2.22601 10.9357 3.79168 10.7574 7.8263C10.5791 13.9083 10.9357 16.2568 12.1244 16.2568C13.3725 16.2568 13.6697 14.8718 13.6697 8.97044V3.61103H15.6904C17.7112 3.61103 17.7706 3.67124 17.9489 6.14019C18.0678 7.94673 18.4244 8.72957 19.0187 8.72957C20.148 8.72957 20.6234 3.30993 19.5536 2.04535C18.781 1.08186 13.3131 0.901209 11.8866 1.80448Z" fill="#1E73BE"/>
<path d="M27.9341 16.1364C25.0218 17.5816 23.7737 20.2312 23.3577 25.5906C23.0011 29.8661 22.9416 30.107 21.5746 30.107C19.435 30.107 18.9001 32.3953 19.1378 41.1269C19.3162 47.9918 19.435 48.9552 20.4454 49.7381C22.1095 50.9424 40.8907 50.9424 42.5548 49.7381C43.5652 48.9552 43.6841 47.9918 43.8624 41.1269C44.1001 32.2748 43.5652 30.107 41.3067 30.107C39.8803 30.107 39.8209 29.9865 39.8209 25.711C39.8209 20.7129 38.6916 18.1838 35.5416 16.2568C33.1048 14.7513 30.668 14.7513 27.9341 16.1364ZM34.4124 18.3042C36.6114 19.5086 37.4435 21.6162 37.4435 26.1928V30.107H31.7973H26.1511V25.5304C26.1511 21.3151 26.2699 20.8334 27.8746 19.2075C29.836 17.2805 31.8567 16.9794 34.4124 18.3042ZM41.0095 40.3441V48.1724H31.5001H21.9907V40.3441V32.5157H31.5001H41.0095V40.3441Z" fill="#1E73BE"/>
<path d="M8.3208 42.8734C8.3208 50.6415 8.61797 57.3257 8.91514 57.8075C9.74722 59.1323 52.0048 59.4936 53.7878 58.1688C54.917 57.386 54.9765 56.4827 55.1548 44.4993C55.2736 37.4538 55.2142 31.0706 54.9765 30.2878C54.6199 28.7221 53.1934 28.421 52.6585 29.8663C52.4802 30.4082 52.3019 36.6107 52.3019 43.7164V56.6031H31.5H10.6982V42.753C10.6982 29.3243 10.6387 28.9028 9.50948 28.9028C8.38023 28.9028 8.3208 29.3243 8.3208 42.8734Z" fill="#3E3E3E"/>
</svg>
