<svg width="110" height="117" viewBox="0 0 110 117" fill="none" xmlns="http://www.w3.org/2000/svg">
<g clip-path="url(#clip0_36_101)">
<path d="M48.8396 7.38006C41.1231 14.2436 39.3352 17.1437 38.1118 23.9106C37.4531 27.3907 36.1357 29.2274 35.1005 28.164C34.8182 27.874 35.1005 25.554 35.571 22.9439L36.5121 18.3037L34.7241 20.5271C31.6187 24.5873 30.96 29.1307 32.0892 38.701C33.1243 46.7246 33.0302 47.8846 31.1482 53.6848C30.0189 57.0683 27.9487 62.0951 26.443 64.8985L23.8081 69.8286L34.2536 80.559L44.6991 91.2893L47.5222 89.2592C54.2035 84.6191 63.9903 80.3656 74.2475 77.5622C80.2701 76.0155 85.7281 74.0821 86.481 73.4054C88.0807 71.762 87.1397 67.6052 84.9753 66.5419C84.0343 66.0585 77.8235 65.4785 71.1421 65.1885C61.1672 64.8018 58.8146 64.4151 58.0617 63.0618C57.1207 61.6117 58.5323 38.8944 59.8497 32.8042C60.132 31.7408 63.8962 28.454 68.6013 25.2639C73.1183 22.2672 78.0117 18.4971 79.4232 16.9504C82.4345 13.6636 82.5286 9.79681 79.5173 9.31345C76.6001 8.92677 56.1797 19.0771 53.8271 22.0738C51.6627 24.9739 49.8747 32.3208 49.8747 38.6044C49.8747 43.4378 49.1219 45.8546 47.7104 45.8546C46.2988 45.8546 47.5222 29.6141 49.4042 24.8773C50.4394 22.2672 53.0743 18.8838 56.9325 15.4036C63.5197 9.5068 64.649 7.38006 62.9551 4.09329C60.132 -1.32021 57.8735 -0.836861 48.8396 7.38006Z" fill="#F5F5F5"/>
<path d="M75.283 29.5175C60.7911 42.5679 61.2616 41.9878 63.5201 41.9878C64.5552 41.9878 69.9191 37.831 75.5653 32.7075C81.1174 27.6807 86.2931 23.6206 86.9518 23.8139C87.7047 24.0073 92.7863 28.1641 98.2443 33.0942C104.173 38.4111 108.878 41.9878 109.819 41.7945C110.854 41.6012 107.466 38.0244 99.3735 30.5808C92.7863 24.684 87.1401 19.7538 86.7636 19.7538C86.3872 19.7538 81.2115 24.104 75.283 29.5175Z" fill="#1E73BE"/>
<path d="M82.3404 30.0976C80.2702 32.031 76.6001 35.5111 74.1534 37.8312L69.6365 42.0846V52.2349V62.2886H77.6353H85.6341V52.6216V42.858L92.0331 43.148L98.338 43.438L98.6203 52.8149C98.9026 62.1919 98.9026 62.2886 101.161 62.2886H103.514V51.8483V41.4079L95.4208 34.1577C90.9979 30.1943 87.1397 26.9075 86.7633 26.8108C86.3869 26.7141 84.4107 28.1642 82.3404 30.0976ZM77.1647 49.2382C77.1647 50.0115 76.7883 50.6882 76.2237 50.6882C75.7532 50.6882 75.2827 50.0115 75.2827 49.2382C75.2827 48.4648 75.7532 47.7881 76.2237 47.7881C76.7883 47.7881 77.1647 48.4648 77.1647 49.2382ZM80.9289 49.2382C80.9289 50.0115 80.5525 50.6882 79.9878 50.6882C79.5173 50.6882 79.0468 50.0115 79.0468 49.2382C79.0468 48.4648 79.5173 47.7881 79.9878 47.7881C80.5525 47.7881 80.9289 48.4648 80.9289 49.2382ZM77.1647 53.105C77.1647 53.8783 76.7883 54.555 76.2237 54.555C75.7532 54.555 75.2827 53.8783 75.2827 53.105C75.2827 52.3316 75.7532 51.6549 76.2237 51.6549C76.7883 51.6549 77.1647 52.3316 77.1647 53.105ZM80.9289 53.105C80.9289 53.8783 80.5525 54.555 79.9878 54.555C79.5173 54.555 79.0468 53.8783 79.0468 53.105C79.0468 52.3316 79.5173 51.6549 79.9878 51.6549C80.5525 51.6549 80.9289 52.3316 80.9289 53.105Z" fill="#F5F5F5"/>
<path d="M88.457 54.0717V62.2886H92.2212H95.9853V54.0717V45.8547H92.2212H88.457V54.0717Z" fill="#1E73BE"/>
<path d="M16.9387 71.4724C16.3741 72.2458 15.9977 73.2125 16.1859 73.6958C16.28 74.1792 22.3026 80.366 29.4545 87.4229C40.2764 98.1533 42.629 99.99 43.7582 99.0233C44.511 98.3466 45.1698 97.2832 45.1698 96.7032C45.1698 95.2532 20.5147 70.0224 19.1972 70.0224C18.5385 70.0224 17.5975 70.6991 16.9387 71.4724Z" fill="#1E73BE"/>
<path d="M4.89338 79.0124C2.16438 81.8158 0 84.5226 0 85.1026C0 86.3593 29.4544 116.424 30.6777 116.424C32.1834 116.424 41.4055 106.37 41.4055 104.727C41.4055 103.277 12.1393 73.8889 10.6337 73.8889C10.1632 73.8889 7.62238 76.209 4.89338 79.0124ZM34.6301 102.116C36.6062 104.147 35.9475 108.497 33.4067 110.237C31.2423 111.687 30.8659 111.687 28.7015 110.237C25.8784 108.303 25.502 103.567 28.0428 102.02C30.2072 100.666 33.2185 100.666 34.6301 102.116Z" fill="#F5F5F5"/>
<path d="M29.1721 105.693C29.1721 108.207 30.7719 109.173 32.4657 107.723C34.1596 106.273 33.2186 103.856 30.9601 103.856C29.8308 103.856 29.1721 104.533 29.1721 105.693Z" fill="#1E73BE"/>
</g>
<defs>
<clipPath id="clip0_36_101">
<rect width="110" height="115.897" fill="white" transform="matrix(1 0 0 -1 0 116.424)"/>
</clipPath>
</defs>
</svg>
